# xmcd
#
# Track frame offsets:
# 150
# 19281
# 35222
# 46053
# 60942
# 77476
# 91515
# 106045
# 115016
# 135770
# 151143
# 161278
# 176637
# 192376
#
# Disc length: 2796 seconds
#
#
# Revision: 0
# Processed by: cddbd v1.5.1PL2 Copyright (c) Steve Scherf et al.
# Submitted via: FreeRIP 2.944 
#
DISCID=950aea0e
DTITLE=Steve Earle - Transcendental Blues
DYEAR=2001
DGENRE=
TTITLE0=Transcendental Blues
TTITLE1=Everybody's in Love with You
TTITLE2=Another Town
TTITLE3=I Can Wait
TTITLE4=The Boy Who Never Cried
TTITLE5=Steve's Last Ramble
TTITLE6=The Galway Girl
TTITLE7=Lonlier than This
TTITLE8=Wherever I Go
TTITLE9=When I Fall
TTITLE10=I don't Wanna Lose You
TTITLE11=Halo 'Round the Moon
TTITLE12=Until the Day I Die
TTITLE13=All of My Life
EXTD=
EXTT0=
EXTT1=
EXTT2=
EXTT3=
EXTT4=
EXTT5=
EXTT6=
EXTT7=
EXTT8=
EXTT9=
EXTT10=
EXTT11=
EXTT12=
EXTT13=
PLAYORDER=
